<svg width="26" height="39" viewBox="0 0 26 39" fill="none" xmlns="http://www.w3.org/2000/svg">
<path d="M7.27271 33.5559C7.27271 36.4683 9.71967 38.8378 12.7272 38.8378C15.7348 38.8378 18.1818 36.4683 18.1818 33.5559C18.1818 30.6435 15.7348 28.274 12.7272 28.274C9.71967 28.274 7.27271 30.6435 7.27271 33.5559ZM12.7272 31.7953C13.7296 31.7953 14.5454 32.5853 14.5454 33.5559C14.5454 34.5266 13.7296 35.3165 12.7272 35.3165C11.7249 35.3165 10.9091 34.5266 10.9091 33.5559C10.9091 32.5853 11.7249 31.7953 12.7272 31.7953Z" fill="#F29337"/>
<path d="M12.7273 0.104248C5.70928 0.104248 0 5.63274 0 12.4285V14.1891H10.9091V12.4285C10.9091 11.4579 11.7249 10.6679 12.7273 10.6679C13.7296 10.6679 14.5455 11.4579 14.5455 12.4285C14.5455 13.0777 14.1761 13.6733 13.5795 13.9837C9.68939 16.0144 7.27273 20.0867 7.27273 24.612V28.274H18.1818V24.612C18.1818 23.9435 18.4759 23.43 18.7519 23.2856C22.8864 21.1316 25.4545 16.9712 25.4545 12.4285C25.4545 5.63274 19.7453 0.104248 12.7273 0.104248ZM17.0289 20.1853C15.4972 20.9835 14.5455 22.6799 14.5455 24.612V24.7528H10.9091V24.612C10.9091 21.3833 12.5933 18.4989 15.303 17.0845C17.0786 16.1606 18.1818 14.3762 18.1818 12.4285C18.1818 9.51617 15.7348 7.14668 12.7273 7.14668C10.3565 7.14668 8.33475 8.61844 7.58428 10.6679H3.81913C4.66383 6.65472 8.33712 3.62547 12.7273 3.62547C17.7401 3.62547 21.8182 7.57446 21.8182 12.4285C21.8182 15.6737 19.983 18.6457 17.0289 20.1853Z" fill="#F29337"/>
</svg>
